<svg id="visual" viewBox="0 0 900 300" width="900" height="300" xmlns="http://www.w3.org/2000/svg" xmlns:xlink="http://www.w3.org/1999/xlink" version="1.1"><rect x="0" y="0" width="900" height="300" fill="#FFFFFF"></rect><defs><linearGradient id="grad1_0" x1="66.7%" y1="0%" x2="100%" y2="100%"><stop offset="-10%" stop-color="#ffffff" stop-opacity="1"></stop><stop offset="110%" stop-color="#ffffff" stop-opacity="1"></stop></linearGradient></defs><defs><linearGradient id="grad2_0" x1="0%" y1="0%" x2="33.3%" y2="100%"><stop offset="-10%" stop-color="#ffffff" stop-opacity="1"></stop><stop offset="110%" stop-color="#ffffff" stop-opacity="1"></stop></linearGradient></defs><g transform="translate(900, 0)"><path d="M0 270C-39.1 270.2 -78.1 270.4 -103.3 249.4C-128.5 228.5 -139.8 186.4 -158.4 158.4C-177 130.3 -202.8 116.3 -222.7 92.2C-242.5 68.2 -256.2 34.1 -270 0L0 0Z" fill="#009473"></path></g><g transform="translate(0, 300)"><path d="M0 -270C31.6 -258.6 63.2 -247.3 98 -236.5C132.7 -225.7 170.5 -215.5 190.9 -190.9C211.3 -166.3 214.2 -127.2 224.5 -93C234.8 -58.8 252.4 -29.4 270 0L0 0Z" fill="#009473"></path></g></svg>