<svg id="visual" viewBox="0 0 900 300" width="900" height="300" xmlns="http://www.w3.org/2000/svg" xmlns:xlink="http://www.w3.org/1999/xlink" version="1.1"><rect x="0" y="0" width="900" height="300" fill="#001220"></rect><path d="M0 85L9.3 85.8C18.7 86.7 37.3 88.3 56.2 96.3C75 104.3 94 118.7 112.8 125.2C131.7 131.7 150.3 130.3 169 122.2C187.7 114 206.3 99 225 98C243.7 97 262.3 110 281.2 118.2C300 126.3 319 129.7 337.8 131.7C356.7 133.7 375.3 134.3 394 127C412.7 119.7 431.3 104.3 450 100.7C468.7 97 487.3 105 506.2 104.5C525 104 544 95 562.8 95.3C581.7 95.7 600.3 105.3 619 108.5C637.7 111.7 656.3 108.3 675 106C693.7 103.7 712.3 102.3 731.2 100.7C750 99 769 97 787.8 91.7C806.7 86.3 825.3 77.7 844 84.8C862.7 92 881.3 115 890.7 126.5L900 138L900 0L890.7 0C881.3 0 862.7 0 844 0C825.3 0 806.7 0 787.8 0C769 0 750 0 731.2 0C712.3 0 693.7 0 675 0C656.3 0 637.7 0 619 0C600.3 0 581.7 0 562.8 0C544 0 525 0 506.2 0C487.3 0 468.7 0 450 0C431.3 0 412.7 0 394 0C375.3 0 356.7 0 337.8 0C319 0 300 0 281.2 0C262.3 0 243.7 0 225 0C206.3 0 187.7 0 169 0C150.3 0 131.7 0 112.8 0C94 0 75 0 56.2 0C37.3 0 18.7 0 9.3 0L0 0Z" fill="#009473"></path><path d="M0 72L9.3 73.2C18.7 74.3 37.3 76.7 56.2 82.8C75 89 94 99 112.8 98.3C131.7 97.7 150.3 86.3 169 83.2C187.7 80 206.3 85 225 86.8C243.7 88.7 262.3 87.3 281.2 86.3C300 85.3 319 84.7 337.8 80.3C356.7 76 375.3 68 394 70.7C412.7 73.3 431.3 86.7 450 93.7C468.7 100.7 487.3 101.3 506.2 102.7C525 104 544 106 562.8 104.7C581.7 103.3 600.3 98.7 619 99.7C637.7 100.7 656.3 107.3 675 111.8C693.7 116.3 712.3 118.7 731.2 112.3C750 106 769 91 787.8 86.7C806.7 82.3 825.3 88.7 844 85.7C862.7 82.7 881.3 70.3 890.7 64.2L900 58L900 0L890.7 0C881.3 0 862.7 0 844 0C825.3 0 806.7 0 787.8 0C769 0 750 0 731.2 0C712.3 0 693.7 0 675 0C656.3 0 637.7 0 619 0C600.3 0 581.7 0 562.8 0C544 0 525 0 506.2 0C487.3 0 468.7 0 450 0C431.3 0 412.7 0 394 0C375.3 0 356.7 0 337.8 0C319 0 300 0 281.2 0C262.3 0 243.7 0 225 0C206.3 0 187.7 0 169 0C150.3 0 131.7 0 112.8 0C94 0 75 0 56.2 0C37.3 0 18.7 0 9.3 0L0 0Z" fill="#00979d"></path><path d="M0 57L9.3 55.5C18.7 54 37.3 51 56.2 50.2C75 49.3 94 50.7 112.8 60.5C131.7 70.3 150.3 88.7 169 91C187.7 93.3 206.3 79.7 225 79.3C243.7 79 262.3 92 281.2 89.8C300 87.7 319 70.3 337.8 63C356.7 55.7 375.3 58.3 394 63.3C412.7 68.3 431.3 75.7 450 74.7C468.7 73.7 487.3 64.3 506.2 62.3C525 60.3 544 65.7 562.8 71.3C581.7 77 600.3 83 619 81.3C637.7 79.7 656.3 70.3 675 70.2C693.7 70 712.3 79 731.2 78.7C750 78.3 769 68.7 787.8 70.7C806.7 72.7 825.3 86.3 844 85.3C862.7 84.3 881.3 68.7 890.7 60.8L900 53L900 0L890.7 0C881.3 0 862.7 0 844 0C825.3 0 806.7 0 787.8 0C769 0 750 0 731.2 0C712.3 0 693.7 0 675 0C656.3 0 637.7 0 619 0C600.3 0 581.7 0 562.8 0C544 0 525 0 506.2 0C487.3 0 468.7 0 450 0C431.3 0 412.7 0 394 0C375.3 0 356.7 0 337.8 0C319 0 300 0 281.2 0C262.3 0 243.7 0 225 0C206.3 0 187.7 0 169 0C150.3 0 131.7 0 112.8 0C94 0 75 0 56.2 0C37.3 0 18.7 0 9.3 0L0 0Z" fill="#0095c7"></path><path d="M0 62L9.3 65.7C18.7 69.3 37.3 76.7 56.2 77.7C75 78.7 94 73.3 112.8 66.5C131.7 59.7 150.3 51.3 169 47.2C187.7 43 206.3 43 225 48C243.7 53 262.3 63 281.2 65.7C300 68.3 319 63.7 337.8 63C356.7 62.3 375.3 65.7 394 70.5C412.7 75.3 431.3 81.7 450 82.8C468.7 84 487.3 80 506.2 79.5C525 79 544 82 562.8 81C581.7 80 600.3 75 619 68.3C637.7 61.7 656.3 53.3 675 55.3C693.7 57.3 712.3 69.7 731.2 76.7C750 83.7 769 85.3 787.8 81.3C806.7 77.3 825.3 67.7 844 61.5C862.7 55.3 881.3 52.7 890.7 51.3L900 50L900 0L890.7 0C881.3 0 862.7 0 844 0C825.3 0 806.7 0 787.8 0C769 0 750 0 731.2 0C712.3 0 693.7 0 675 0C656.3 0 637.7 0 619 0C600.3 0 581.7 0 562.8 0C544 0 525 0 506.2 0C487.3 0 468.7 0 450 0C431.3 0 412.7 0 394 0C375.3 0 356.7 0 337.8 0C319 0 300 0 281.2 0C262.3 0 243.7 0 225 0C206.3 0 187.7 0 169 0C150.3 0 131.7 0 112.8 0C94 0 75 0 56.2 0C37.3 0 18.7 0 9.3 0L0 0Z" fill="#008de4"></path><path d="M0 66L9.3 66.3C18.7 66.7 37.3 67.3 56.2 67C75 66.7 94 65.3 112.8 61C131.7 56.7 150.3 49.3 169 47.5C187.7 45.7 206.3 49.3 225 50.3C243.7 51.3 262.3 49.7 281.2 50.7C300 51.7 319 55.3 337.8 52.5C356.7 49.7 375.3 40.3 394 41.8C412.7 43.3 431.3 55.7 450 60.2C468.7 64.7 487.3 61.3 506.2 62.7C525 64 544 70 562.8 67.2C581.7 64.3 600.3 52.7 619 49.3C637.7 46 656.3 51 675 53.3C693.7 55.7 712.3 55.3 731.2 55.8C750 56.3 769 57.7 787.8 56.8C806.7 56 825.3 53 844 52.2C862.7 51.3 881.3 52.7 890.7 53.3L900 54L900 0L890.7 0C881.3 0 862.7 0 844 0C825.3 0 806.7 0 787.8 0C769 0 750 0 731.2 0C712.3 0 693.7 0 675 0C656.3 0 637.7 0 619 0C600.3 0 581.7 0 562.8 0C544 0 525 0 506.2 0C487.3 0 468.7 0 450 0C431.3 0 412.7 0 394 0C375.3 0 356.7 0 337.8 0C319 0 300 0 281.2 0C262.3 0 243.7 0 225 0C206.3 0 187.7 0 169 0C150.3 0 131.7 0 112.8 0C94 0 75 0 56.2 0C37.3 0 18.7 0 9.3 0L0 0Z" fill="#007df2"></path><path d="M0 57L9.3 56.5C18.7 56 37.3 55 56.2 52.8C75 50.7 94 47.3 112.8 42.8C131.7 38.3 150.3 32.7 169 28.8C187.7 25 206.3 23 225 24.2C243.7 25.3 262.3 29.7 281.2 31.7C300 33.7 319 33.3 337.8 31.7C356.7 30 375.3 27 394 28.8C412.7 30.7 431.3 37.3 450 41.5C468.7 45.7 487.3 47.3 506.2 44.2C525 41 544 33 562.8 31C581.7 29 600.3 33 619 34C637.7 35 656.3 33 675 30.3C693.7 27.7 712.3 24.3 731.2 27C750 29.7 769 38.3 787.8 44.2C806.7 50 825.3 53 844 53.2C862.7 53.3 881.3 50.7 890.7 49.3L900 48L900 0L890.7 0C881.3 0 862.7 0 844 0C825.3 0 806.7 0 787.8 0C769 0 750 0 731.2 0C712.3 0 693.7 0 675 0C656.3 0 637.7 0 619 0C600.3 0 581.7 0 562.8 0C544 0 525 0 506.2 0C487.3 0 468.7 0 450 0C431.3 0 412.7 0 394 0C375.3 0 356.7 0 337.8 0C319 0 300 0 281.2 0C262.3 0 243.7 0 225 0C206.3 0 187.7 0 169 0C150.3 0 131.7 0 112.8 0C94 0 75 0 56.2 0C37.3 0 18.7 0 9.3 0L0 0Z" fill="#0069ff"></path><path d="M0 26L9.3 26.2C18.7 26.3 37.3 26.7 56.2 26.2C75 25.7 94 24.3 112.8 23.7C131.7 23 150.3 23 169 21.7C187.7 20.3 206.3 17.7 225 16.8C243.7 16 262.3 17 281.2 20.2C300 23.3 319 28.7 337.8 28.8C356.7 29 375.3 24 394 25.7C412.7 27.3 431.3 35.7 450 36.5C468.7 37.3 487.3 30.7 506.2 28.2C525 25.7 544 27.3 562.8 27C581.7 26.7 600.3 24.3 619 26C637.7 27.7 656.3 33.3 675 36.5C693.7 39.7 712.3 40.3 731.2 36.5C750 32.7 769 24.3 787.8 24.3C806.7 24.3 825.3 32.7 844 35.8C862.7 39 881.3 37 890.7 36L900 35L900 0L890.7 0C881.3 0 862.7 0 844 0C825.3 0 806.7 0 787.8 0C769 0 750 0 731.2 0C712.3 0 693.7 0 675 0C656.3 0 637.7 0 619 0C600.3 0 581.7 0 562.8 0C544 0 525 0 506.2 0C487.3 0 468.7 0 450 0C431.3 0 412.7 0 394 0C375.3 0 356.7 0 337.8 0C319 0 300 0 281.2 0C262.3 0 243.7 0 225 0C206.3 0 187.7 0 169 0C150.3 0 131.7 0 112.8 0C94 0 75 0 56.2 0C37.3 0 18.7 0 9.3 0L0 0Z" fill="#234cff"></path><path d="M0 10L9.3 13.2C18.7 16.3 37.3 22.7 56.2 23.8C75 25 94 21 112.8 17.7C131.7 14.3 150.3 11.7 169 12.2C187.7 12.7 206.3 16.3 225 15.5C243.7 14.7 262.3 9.3 281.2 8.8C300 8.3 319 12.7 337.8 14.8C356.7 17 375.3 17 394 18.3C412.7 19.7 431.3 22.3 450 20C468.7 17.7 487.3 10.3 506.2 9.3C525 8.3 544 13.7 562.8 16.5C581.7 19.3 600.3 19.7 619 17.8C637.7 16 656.3 12 675 10.8C693.7 9.7 712.3 11.3 731.2 13.7C750 16 769 19 787.8 17.3C806.7 15.7 825.3 9.3 844 7.2C862.7 5 881.3 7 890.7 8L900 9L900 0L890.7 0C881.3 0 862.7 0 844 0C825.3 0 806.7 0 787.8 0C769 0 750 0 731.2 0C712.3 0 693.7 0 675 0C656.3 0 637.7 0 619 0C600.3 0 581.7 0 562.8 0C544 0 525 0 506.2 0C487.3 0 468.7 0 450 0C431.3 0 412.7 0 394 0C375.3 0 356.7 0 337.8 0C319 0 300 0 281.2 0C262.3 0 243.7 0 225 0C206.3 0 187.7 0 169 0C150.3 0 131.7 0 112.8 0C94 0 75 0 56.2 0C37.3 0 18.7 0 9.3 0L0 0Z" fill="#6600ff"></path></svg>