<svg id="visual" viewBox="0 0 900 600" width="900" height="600" xmlns="http://www.w3.org/2000/svg" xmlns:xlink="http://www.w3.org/1999/xlink" version="1.1"><rect x="0" y="0" width="900" height="600" fill="#FFFFFF"></rect><path d="M0 191L18.8 189.5C37.7 188 75.3 185 112.8 186C150.3 187 187.7 192 225.2 206.7C262.7 221.3 300.3 245.7 337.8 245C375.3 244.3 412.7 218.7 450.2 201.2C487.7 183.7 525.3 174.3 562.8 176.8C600.3 179.3 637.7 193.7 675.2 193.8C712.7 194 750.3 180 787.8 181.2C825.3 182.3 862.7 198.7 881.3 206.8L900 215L900 0L881.3 0C862.7 0 825.3 0 787.8 0C750.3 0 712.7 0 675.2 0C637.7 0 600.3 0 562.8 0C525.3 0 487.7 0 450.2 0C412.7 0 375.3 0 337.8 0C300.3 0 262.7 0 225.2 0C187.7 0 150.3 0 112.8 0C75.3 0 37.7 0 18.8 0L0 0Z" fill="#4808a8"></path><path d="M0 119L18.8 121.8C37.7 124.7 75.3 130.3 112.8 139.3C150.3 148.3 187.7 160.7 225.2 163.3C262.7 166 300.3 159 337.8 156C375.3 153 412.7 154 450.2 156.7C487.7 159.3 525.3 163.7 562.8 175.8C600.3 188 637.7 208 675.2 213.3C712.7 218.7 750.3 209.3 787.8 202.8C825.3 196.3 862.7 192.7 881.3 190.8L900 189L900 0L881.3 0C862.7 0 825.3 0 787.8 0C750.3 0 712.7 0 675.2 0C637.7 0 600.3 0 562.8 0C525.3 0 487.7 0 450.2 0C412.7 0 375.3 0 337.8 0C300.3 0 262.7 0 225.2 0C187.7 0 150.3 0 112.8 0C75.3 0 37.7 0 18.8 0L0 0Z" fill="#a00092"></path><path d="M0 124L18.8 133C37.7 142 75.3 160 112.8 164.8C150.3 169.7 187.7 161.3 225.2 158.5C262.7 155.7 300.3 158.3 337.8 160.5C375.3 162.7 412.7 164.3 450.2 157.7C487.7 151 525.3 136 562.8 135.8C600.3 135.7 637.7 150.3 675.2 158.2C712.7 166 750.3 167 787.8 162.7C825.3 158.3 862.7 148.7 881.3 143.8L900 139L900 0L881.3 0C862.7 0 825.3 0 787.8 0C750.3 0 712.7 0 675.2 0C637.7 0 600.3 0 562.8 0C525.3 0 487.7 0 450.2 0C412.7 0 375.3 0 337.8 0C300.3 0 262.7 0 225.2 0C187.7 0 150.3 0 112.8 0C75.3 0 37.7 0 18.8 0L0 0Z" fill="#ce237e"></path><path d="M0 153L18.8 154.7C37.7 156.3 75.3 159.7 112.8 153.7C150.3 147.7 187.7 132.3 225.2 124C262.7 115.7 300.3 114.3 337.8 110.3C375.3 106.3 412.7 99.7 450.2 104.5C487.7 109.3 525.3 125.7 562.8 137.8C600.3 150 637.7 158 675.2 151.8C712.7 145.7 750.3 125.3 787.8 124.5C825.3 123.7 862.7 142.3 881.3 151.7L900 161L900 0L881.3 0C862.7 0 825.3 0 787.8 0C750.3 0 712.7 0 675.2 0C637.7 0 600.3 0 562.8 0C525.3 0 487.7 0 450.2 0C412.7 0 375.3 0 337.8 0C300.3 0 262.7 0 225.2 0C187.7 0 150.3 0 112.8 0C75.3 0 37.7 0 18.8 0L0 0Z" fill="#e85a72"></path><path d="M0 111L18.8 101.8C37.7 92.7 75.3 74.3 112.8 77.5C150.3 80.7 187.7 105.3 225.2 109.3C262.7 113.3 300.3 96.7 337.8 96.3C375.3 96 412.7 112 450.2 118.7C487.7 125.3 525.3 122.7 562.8 119.2C600.3 115.7 637.7 111.3 675.2 112C712.7 112.7 750.3 118.3 787.8 116C825.3 113.7 862.7 103.3 881.3 98.2L900 93L900 0L881.3 0C862.7 0 825.3 0 787.8 0C750.3 0 712.7 0 675.2 0C637.7 0 600.3 0 562.8 0C525.3 0 487.7 0 450.2 0C412.7 0 375.3 0 337.8 0C300.3 0 262.7 0 225.2 0C187.7 0 150.3 0 112.8 0C75.3 0 37.7 0 18.8 0L0 0Z" fill="#f58a75"></path><path d="M0 68L18.8 69.5C37.7 71 75.3 74 112.8 70C150.3 66 187.7 55 225.2 48.7C262.7 42.3 300.3 40.7 337.8 40.3C375.3 40 412.7 41 450.2 45.2C487.7 49.3 525.3 56.7 562.8 58.5C600.3 60.3 637.7 56.7 675.2 59.7C712.7 62.7 750.3 72.3 787.8 78.8C825.3 85.3 862.7 88.7 881.3 90.3L900 92L900 0L881.3 0C862.7 0 825.3 0 787.8 0C750.3 0 712.7 0 675.2 0C637.7 0 600.3 0 562.8 0C525.3 0 487.7 0 450.2 0C412.7 0 375.3 0 337.8 0C300.3 0 262.7 0 225.2 0C187.7 0 150.3 0 112.8 0C75.3 0 37.7 0 18.8 0L0 0Z" fill="#fab78a"></path><path d="M0 11L18.8 18.5C37.7 26 75.3 41 112.8 49.5C150.3 58 187.7 60 225.2 60.8C262.7 61.7 300.3 61.3 337.8 56.7C375.3 52 412.7 43 450.2 43.2C487.7 43.3 525.3 52.7 562.8 50.5C600.3 48.3 637.7 34.7 675.2 26.5C712.7 18.3 750.3 15.7 787.8 15.3C825.3 15 862.7 17 881.3 18L900 19L900 0L881.3 0C862.7 0 825.3 0 787.8 0C750.3 0 712.7 0 675.2 0C637.7 0 600.3 0 562.8 0C525.3 0 487.7 0 450.2 0C412.7 0 375.3 0 337.8 0C300.3 0 262.7 0 225.2 0C187.7 0 150.3 0 112.8 0C75.3 0 37.7 0 18.8 0L0 0Z" fill="#ffe0b2"></path></svg>